<mxfile host="app.diagrams.net" modified="2020-09-08T21:34:31.421Z" agent="5.0 (Windows NT 10.0; Win64; x64) AppleWebKit/537.36 (KHTML, like Gecko) Chrome/85.0.4183.83 Safari/537.36" etag="4PUEvIIALonVaif2z4dM" version="13.6.9" type="github">
  <diagram id="R2lEEEUBdFMjLlhIrx00" name="Page-1">
    <mxGraphModel dx="2272" dy="762" grid="1" gridSize="10" guides="1" tooltips="1" connect="1" arrows="1" fold="1" page="1" pageScale="1" pageWidth="850" pageHeight="1100" math="0" shadow="0" extFonts="Permanent Marker^https://fonts.googleapis.com/css?family=Permanent+Marker">
      <root>
        <mxCell id="0" />
        <mxCell id="1" parent="0" />
        <mxCell id="heI6A5Kc94iBKzK7JHYU-41" value="User" style="whiteSpace=wrap;html=1;align=center;" parent="1" vertex="1">
          <mxGeometry x="-800" y="40" width="120" height="60" as="geometry" />
        </mxCell>
        <mxCell id="heI6A5Kc94iBKzK7JHYU-43" value="Answer" style="whiteSpace=wrap;html=1;align=center;" parent="1" vertex="1">
          <mxGeometry x="-400" y="280" width="120" height="60" as="geometry" />
        </mxCell>
        <mxCell id="heI6A5Kc94iBKzK7JHYU-44" value="Category" style="whiteSpace=wrap;html=1;align=center;" parent="1" vertex="1">
          <mxGeometry x="-200" y="40" width="120" height="60" as="geometry" />
        </mxCell>
        <mxCell id="heI6A5Kc94iBKzK7JHYU-60" style="edgeStyle=orthogonalEdgeStyle;rounded=0;orthogonalLoop=1;jettySize=auto;html=1;startArrow=ERmandOne;startFill=0;endArrow=ERzeroToMany;endFill=1;" parent="1" source="heI6A5Kc94iBKzK7JHYU-45" target="heI6A5Kc94iBKzK7JHYU-43" edge="1">
          <mxGeometry relative="1" as="geometry" />
        </mxCell>
        <mxCell id="heI6A5Kc94iBKzK7JHYU-45" value="Question" style="whiteSpace=wrap;html=1;align=center;" parent="1" vertex="1">
          <mxGeometry x="-400" y="160" width="120" height="60" as="geometry" />
        </mxCell>
        <mxCell id="heI6A5Kc94iBKzK7JHYU-57" style="edgeStyle=orthogonalEdgeStyle;rounded=0;orthogonalLoop=1;jettySize=auto;html=1;entryX=0;entryY=0.5;entryDx=0;entryDy=0;startArrow=ERzeroToMany;startFill=1;endArrow=ERmandOne;endFill=0;" parent="1" source="heI6A5Kc94iBKzK7JHYU-46" target="heI6A5Kc94iBKzK7JHYU-44" edge="1">
          <mxGeometry relative="1" as="geometry" />
        </mxCell>
        <mxCell id="heI6A5Kc94iBKzK7JHYU-59" style="edgeStyle=orthogonalEdgeStyle;rounded=0;orthogonalLoop=1;jettySize=auto;html=1;entryX=0.5;entryY=0;entryDx=0;entryDy=0;startArrow=ERmandOne;startFill=0;endArrow=ERzeroToMany;endFill=1;" parent="1" source="heI6A5Kc94iBKzK7JHYU-46" target="heI6A5Kc94iBKzK7JHYU-45" edge="1">
          <mxGeometry relative="1" as="geometry" />
        </mxCell>
        <mxCell id="QeHIBVWqindrkTcFapJJ-6" style="edgeStyle=orthogonalEdgeStyle;rounded=0;orthogonalLoop=1;jettySize=auto;html=1;exitX=0;exitY=0.75;exitDx=0;exitDy=0;entryX=0.5;entryY=1;entryDx=0;entryDy=0;startArrow=ERzeroToMany;startFill=1;endArrow=ERmandOne;endFill=0;" parent="1" source="heI6A5Kc94iBKzK7JHYU-46" target="heI6A5Kc94iBKzK7JHYU-41" edge="1">
          <mxGeometry relative="1" as="geometry">
            <Array as="points">
              <mxPoint x="-440" y="85" />
              <mxPoint x="-440" y="160" />
              <mxPoint x="-740" y="160" />
            </Array>
          </mxGeometry>
        </mxCell>
        <mxCell id="heI6A5Kc94iBKzK7JHYU-46" value="Test" style="whiteSpace=wrap;html=1;align=center;" parent="1" vertex="1">
          <mxGeometry x="-400" y="40" width="120" height="60" as="geometry" />
        </mxCell>
        <mxCell id="heI6A5Kc94iBKzK7JHYU-47" value="UserTest" style="whiteSpace=wrap;html=1;align=center;" parent="1" vertex="1">
          <mxGeometry x="-600" y="40" width="120" height="60" as="geometry" />
        </mxCell>
        <mxCell id="heI6A5Kc94iBKzK7JHYU-50" value="" style="edgeStyle=entityRelationEdgeStyle;fontSize=12;html=1;endArrow=ERzeroToMany;startArrow=ERmandOne;exitX=1;exitY=0.5;exitDx=0;exitDy=0;entryX=0;entryY=0.5;entryDx=0;entryDy=0;" parent="1" source="heI6A5Kc94iBKzK7JHYU-41" target="heI6A5Kc94iBKzK7JHYU-47" edge="1">
          <mxGeometry width="100" height="100" relative="1" as="geometry">
            <mxPoint x="-410" y="340" as="sourcePoint" />
            <mxPoint x="-310" y="240" as="targetPoint" />
          </mxGeometry>
        </mxCell>
        <mxCell id="heI6A5Kc94iBKzK7JHYU-56" value="" style="edgeStyle=entityRelationEdgeStyle;fontSize=12;html=1;endArrow=ERmandOne;startArrow=ERzeroToMany;exitX=1;exitY=0.5;exitDx=0;exitDy=0;entryX=0;entryY=0.5;entryDx=0;entryDy=0;startFill=1;endFill=0;" parent="1" source="heI6A5Kc94iBKzK7JHYU-47" target="heI6A5Kc94iBKzK7JHYU-46" edge="1">
          <mxGeometry width="100" height="100" relative="1" as="geometry">
            <mxPoint x="-350" y="290" as="sourcePoint" />
            <mxPoint x="-270" y="290" as="targetPoint" />
          </mxGeometry>
        </mxCell>
        <mxCell id="xJm0A3jfCHnUOWMa0EMs-1" value="Badge" style="whiteSpace=wrap;html=1;align=center;" vertex="1" parent="1">
          <mxGeometry x="-600" y="280" width="120" height="60" as="geometry" />
        </mxCell>
        <mxCell id="xJm0A3jfCHnUOWMa0EMs-2" value="AwardRules" style="whiteSpace=wrap;html=1;align=center;" vertex="1" parent="1">
          <mxGeometry x="-600" y="400" width="120" height="60" as="geometry" />
        </mxCell>
      </root>
    </mxGraphModel>
  </diagram>
</mxfile>
